<svg xmlns="http://www.w3.org/2000/svg" width="168" height="21" viewBox="0 0 168 21"><rect width="100%" height="100%" fill="#DDDDDD"/><path fill="#999999" d="M66.43 13.455h1.43v1.02h-4.4v-1.02h1.61v-4.63q0-.28.02-.57l-1.15.96q-.1.07-.19.09-.1.02-.18.01-.09-.02-.15-.06-.07-.04-.1-.09l-.43-.59 2.42-2.06h1.12v6.94Zm7.35-6.93-2.36 2.88-.28.35q.23-.12.5-.18.27-.07.58-.07.45 0 .87.15.43.15.75.45.33.3.53.75.19.44.19 1.04 0 .55-.2 1.04-.2.48-.57.85-.37.36-.89.57-.52.21-1.15.21-.63 0-1.14-.21-.51-.2-.86-.56-.36-.37-.55-.88-.19-.52-.19-1.15 0-.56.23-1.15.23-.59.7-1.23l1.9-2.54q.1-.14.29-.23.19-.09.44-.09h1.21Zm-2.05 6.93q.32 0 .59-.11.27-.11.47-.31.2-.2.31-.47.11-.26.11-.58 0-.34-.11-.61-.1-.27-.3-.46-.19-.19-.46-.29-.27-.1-.59-.1-.33 0-.59.11-.26.11-.45.31-.19.19-.29.46-.11.27-.11.57 0 .33.09.61.09.27.27.46.18.19.45.3.26.11.61.11Zm6.39.05q.33 0 .59-.1.25-.1.42-.27.17-.17.26-.4.09-.24.09-.51 0-.66-.36-.99-.37-.34-1-.34-.64 0-1 .34-.37.33-.37.99 0 .27.09.51.09.23.26.4.18.17.43.27t.59.1Zm0-6.05q-.31 0-.53.1-.22.09-.36.25-.15.15-.22.36-.06.2-.06.43 0 .23.05.45.06.23.2.4t.36.28q.23.1.56.1.33 0 .55-.1.23-.11.37-.28.13-.17.19-.4.06-.22.06-.45t-.07-.43q-.07-.21-.22-.36-.14-.16-.36-.25-.22-.1-.52-.1Zm1.34 2.87q.72.24 1.07.73.35.48.35 1.19 0 .53-.2.95-.2.43-.57.74-.36.3-.87.46-.51.17-1.12.17-.62 0-1.13-.17-.51-.16-.87-.46-.36-.31-.56-.74-.2-.42-.2-.95 0-.71.34-1.19.35-.49 1.07-.73-.57-.24-.86-.68-.29-.45-.29-1.08 0-.45.18-.84.19-.39.52-.68.33-.29.79-.45.46-.16 1.01-.16t1.01.16q.46.16.79.45.33.29.51.68.18.39.18.84 0 .63-.28 1.08-.29.44-.87.68Zm10.31 2.33-.72.71-1.87-1.87-1.88 1.88-.72-.71 1.88-1.89-1.79-1.79.71-.71 1.8 1.79 1.78-1.78.72.71-1.78 1.79 1.87 1.87Zm6.62.56h2.04q.22 0 .35.12.13.12.13.33v.81h-5.46v-.45q0-.14.06-.29.06-.15.18-.27l2.42-2.42q.3-.31.54-.59.24-.28.4-.56.16-.27.24-.55.09-.29.09-.6 0-.29-.08-.5-.09-.22-.24-.37t-.36-.22q-.21-.08-.48-.08-.24 0-.45.07-.2.07-.36.19-.16.13-.27.29-.11.17-.17.37-.09.25-.24.33-.15.08-.43.04l-.71-.13q.08-.57.32-1 .23-.43.59-.72.35-.29.81-.44.46-.14.99-.14.55 0 1.01.16.45.16.78.46.32.3.5.72.18.41.18.93 0 .44-.12.81-.13.37-.35.71-.22.35-.51.66-.29.32-.61.65l-1.79 1.83q.26-.07.51-.11.26-.04.49-.04Zm7.29.24h1.43v1.02h-4.4v-1.02h1.61v-4.63q0-.28.01-.57l-1.14.96q-.1.07-.2.09-.09.02-.18.01-.08-.02-.15-.06-.06-.04-.1-.09l-.43-.59 2.43-2.06h1.12v6.94Z"/></svg>